# Blender v3.1.2 OBJ File: ''
# www.blender.org
mtllib idgent.mtl
o Cube_Cube.007
v -1.782480 -1.000000 0.082653
v -1.208936 1.000000 0.082653
v -1.782480 -1.000000 -0.082653
v -1.208936 1.000000 -0.082653
v 1.782480 -1.000000 0.082653
v 1.782480 1.000000 0.082653
v 1.782480 -1.000000 -0.082653
v 1.782480 1.000000 -0.082653
v -1.179603 1.000000 -0.082653
v -1.782480 0.477424 0.082653
v -1.211769 1.000000 0.082653
v -1.782480 0.512074 -0.082653
vt 0.375000 0.000000
vt 0.559678 0.000000
vt 0.564009 0.250000
vt 0.375000 0.250000
vt 0.002269 0.640939
vt 0.000796 0.699968
vt 0.023035 0.719088
vt 0.134635 0.719439
vt 0.136583 0.641361
vt 0.375000 0.500000
vt 0.625000 0.500000
vt 0.625000 0.750000
vt 0.375000 0.750000
vt 0.831232 0.247628
vt 0.830590 0.340217
vt 0.703933 0.339389
vt 0.679959 0.315038
vt 0.680433 0.246641
vt 0.125000 0.500000
vt 0.125000 0.750000
vt 0.680807 0.500000
vt 0.735370 0.500000
vt 0.735963 0.715769
vt 0.680807 0.715769
vt 0.000320 0.719017
vt 0.834978 0.750000
vt 0.832722 0.500000
vt 0.875000 0.500000
vt 0.875000 0.750000
vt 0.679791 0.339231
vt 0.625000 0.000000
vt 0.625000 0.250000
vn -1.0000 0.0000 0.0000
vn 0.0000 0.0000 -1.0000
vn 1.0000 0.0000 0.0000
vn 0.0000 0.0000 1.0000
vn 0.0000 -1.0000 0.0000
vn 0.0000 1.0000 0.0000
vn -0.6590 0.7481 0.0784
usemtl Material.009
s off
f 1/1/1 10/2/1 12/3/1 3/4/1
f 3/5/2 12/6/2 9/7/2 8/8/2 7/9/2
f 7/10/3 8/11/3 6/12/3 5/13/3
f 5/14/4 6/15/4 11/16/4 10/17/4 1/18/4
f 3/19/5 7/10/5 5/13/5 1/20/5
f 8/21/6 9/22/6 11/23/6 6/24/6
f 9/7/2 12/6/2 4/25/2
f 11/26/6 9/27/6 4/28/6 2/29/6
f 10/17/2 11/16/2 2/30/2
f 12/3/7 10/2/7 2/31/7 4/32/7
